<svg width="24px" height="24px" viewBox="0 0 20.00 20.00" version="1.1" xmlns="http://www.w3.org/2000/svg"
	fill="#000000">
	<g id="SVGRepo_bgCarrier" stroke-width="0"></g>
	<g id="SVGRepo_tracerCarrier" stroke-linecap="round" stroke-linejoin="round"></g>
	<g id="SVGRepo_iconCarrier">
		<g id="layer1">
			<path
				d="M 3.4648438 0.46484375 C 1.5122218 2.4174653 1.5122217 5.5825347 3.4648438 7.5351562 L 4.171875 6.828125 C 2.609778 5.2660279 2.609778 2.7339722 4.171875 1.171875 L 3.4648438 0.46484375 z M 13.535156 0.46484375 L 12.828125 1.171875 C 14.390222 2.7339722 14.390222 5.2660279 12.828125 6.828125 L 13.535156 7.5351562 C 15.487778 5.5825347 15.487778 2.4174653 13.535156 0.46484375 z M 4.8789062 1.8789062 C 3.7073333 3.0504791 3.7073333 4.9495208 4.8789062 6.1210938 L 5.5859375 5.4140625 C 4.8048885 4.6330138 4.8048885 3.3669862 5.5859375 2.5859375 L 4.8789062 1.8789062 z M 12.121094 1.8789062 L 11.414062 2.5859375 C 12.195111 3.3669862 12.195111 4.6330138 11.414062 5.4140625 L 12.121094 6.1210938 C 13.292667 4.9495208 13.292667 3.0504791 12.121094 1.8789062 z M 7 2 L 7 10.292969 L 5.5 8.7929688 L 3.7382812 10.554688 L 3.8730469 11.066406 L 4.0390625 11.566406 L 4.234375 12.060547 L 4.4570312 12.537109 L 4.7070312 13.003906 L 4.984375 13.453125 L 5.2890625 13.886719 L 5.6171875 14.298828 L 5.9707031 14.693359 L 6.34375 15.066406 L 6.7402344 15.416016 L 6.9902344 15.646484 L 7.21875 15.900391 L 7.4199219 16.173828 L 7.59375 16.466797 L 7.7382812 16.777344 L 7.8515625 17.097656 L 7.9335938 17.427734 L 7.9824219 17.765625 L 8 18.105469 L 8 20 L 15 20 L 15 16.445312 L 15.013672 16.121094 L 15.060547 15.798828 L 15.134766 15.484375 L 15.238281 15.175781 L 15.369141 14.878906 L 15.523438 14.568359 L 15.667969 14.251953 L 15.787109 13.923828 L 15.878906 13.589844 L 15.945312 13.248047 L 15.986328 12.904297 L 16 12.556641 L 16 9.1386719 L 10 7.140625 L 10 2 L 7 2 z M 8 3 L 9 3 L 9 7.8613281 L 15 9.8613281 L 15 12.556641 L 14.984375 12.880859 L 14.939453 13.201172 L 14.865234 13.517578 L 14.761719 13.826172 L 14.628906 14.121094 L 14.474609 14.431641 L 14.332031 14.748047 L 14.212891 15.076172 L 14.121094 15.410156 L 14.052734 15.751953 L 14.011719 16.097656 L 13.998047 16.445312 L 13.998047 19.001953 L 9 19.001953 L 9 18.105469 L 8.984375 17.710938 L 8.9316406 17.320312 L 8.8457031 16.935547 L 8.7265625 16.560547 L 8.5742188 16.197266 L 8.3925781 15.845703 L 8.1796875 15.515625 L 7.9394531 15.203125 L 7.671875 14.914062 L 7.3789062 14.648438 L 6.9960938 14.306641 L 6.6347656 13.941406 L 6.2988281 13.552734 L 5.9882812 13.146484 L 5.703125 12.716797 L 5.4453125 12.273438 L 5.21875 11.8125 L 5.0214844 11.337891 L 4.8535156 10.853516 L 5.5 10.207031 L 8 12.707031 L 8 3 z "
				style="fill:#222222; fill-opacity:1;  stroke-width:0.0002;"></path>
		</g>
	</g>
</svg>